<svg xmlns="http://www.w3.org/2000/svg"
shape-rendering="geometricPrecision"
width="4000" height="4000" viewBox="0 0 743 743">
  <metadata>null</metadata>

<path d="
M 33.783 533.218
C 39.07 532.614 44.4 533.439 49.66 533.011
C 52.057 537.812 53.889 542.979 55.948 547.938
C 58.68 554.515 61.55 561.048 64.158 567.676
C 65.325 570.643 66.589 573.576 67.794 576.526
C 68.017 577.071 68.354 579.036 68.864 579.191
C 71.976 569.554 76.538 560.1 80.493 550.773
C 82.937 545.011 84.949 538.496 88.158 533.124
C 93.319 532.684 98.59 533.173 103.765 533.022
C 103.222 540.093 103.639 547.4 103.609 554.499
C 103.552 568.302 103.493 582.108 103.322 595.91
C 99.546 595.841 95.745 595.828 91.97 595.911
C 91.344 595.364 91.616 593.835 91.621 593.006
C 91.638 590.339 91.591 587.67 91.585 585.002
C 91.569 577.835 91.533 570.665 91.577 563.498
C 91.591 561.162 91.536 558.82 91.566 556.487
C 91.578 555.51 91.833 554.407 91.509 553.473
C 86.768 564.055 82.194 574.737 77.751 585.45
C 76.283 588.992 75.061 592.769 73.269 596.16
C 70.313 596.51 67.211 595.955 64.234 596.08
C 63.538 595.751 63.302 594.457 62.981 593.753
C 62.062 591.731 61.111 589.691 60.322 587.615
C 57.207 579.413 53.457 571.319 49.952 563.271
C 48.846 560.732 47.758 558.18 46.783 555.588
C 46.601 555.105 46.18 553.314 45.749 553.576
C 45.799 562.711 45.854 571.863 45.871 581.007
C 45.88 585.96 45.553 591.048 45.931 595.984
C 42.043 596.308 37.977 596.104 34.082 595.914
C 33.292 589.954 33.934 583.513 33.923 577.493
C 33.898 562.77 34.434 547.927 33.783 533.218 Z"
opacity="1" fill="rgb(9,71,104)" fill-rule="evenodd" />
<path d="
M 107.747 621.329
C 108.888 621.318 110.945 620.817 111.919 621.427
C 114.073 626.473 115.614 632.445 118.567 637.075
C 119.458 636.927 119.875 633.995 120.176 633.198
C 121.698 629.164 123.434 625.073 125.267 621.171
C 126.129 621.158 128.865 620.803 129.379 621.438
C 129.23 625.447 129.321 629.479 129.287 633.492
C 129.267 635.814 128.907 638.441 129.325 640.726
C 128.481 640.735 126.934 641.132 126.244 640.677
C 126.247 637.244 126.183 633.791 126.262 630.359
C 126.3 628.677 127.023 626.749 126.467 625.128
C 124.39 628.295 123.137 632.643 121.93 636.231
C 121.552 637.354 120.965 640.186 119.975 640.84
C 119.139 640.944 118.253 641.002 117.466 640.659
C 115.422 637.873 114.031 633.852 112.885 630.606
C 112.473 629.441 111.99 628.178 111.466 627.063
C 111.268 626.643 111.186 625.605 110.787 625.844
C 109.968 626.336 110.714 628.588 110.73 629.32
C 110.808 632.881 109.966 637.389 110.905 640.823
C 109.892 640.776 108.889 640.722 107.885 640.642
C 107.631 636.295 107.808 631.859 107.783 627.501
C 107.771 625.558 107.293 623.2 107.747 621.329 Z"
opacity="1" fill="rgb(15,75,110)" fill-rule="evenodd" />
<path d="
M 111.95 580.583
C 114.529 572.71 121.8 570.452 129.431 569.869
C 131.657 569.699 133.9 569.739 136.131 569.702
C 136.589 569.695 138.117 569.942 138.383 569.578
C 138.428 568.291 138.452 566.879 138.098 565.626
C 137.317 562.871 134.076 561.947 131.573 561.846
C 127.983 561.701 123.976 562.264 120.571 563.414
C 118.824 564.004 117.158 564.956 115.415 565.479
C 115.412 562.442 114.966 559.122 115.435 556.122
C 118.667 554.243 122.947 553.511 126.613 553.028
C 129.516 552.646 132.511 552.627 135.428 552.857
C 137.401 553.012 139.369 553.374 141.238 554.036
C 148.096 556.467 149.55 562.254 149.668 568.838
C 149.779 575.057 149.661 581.281 149.691 587.5
C 149.704 590.059 149.274 593.156 149.787 595.658
C 146.739 595.755 142.66 596.333 139.71 595.649
C 139.345 594.149 139.309 592.709 139.16 591.192
C 135.355 593.742 132.774 596.369 127.936 597.01
C 117.975 598.328 109.644 590.881 111.95 580.583 Z
M 123.406 581.571
C 123.274 582.326 123.18 583.054 123.291 583.82
C 124.302 590.831 134.691 587.626 138.145 584.801
C 138.471 582.072 137.97 579.248 138.329 576.526
C 137.288 576.04 135.599 576.5 134.48 576.564
C 130.26 576.808 125.362 577.277 123.406 581.571 Z"
opacity="1" fill="rgb(10,73,105)" fill-rule="evenodd" />
<path d="
M 135.899 639.526
C 137.733 635.252 139.388 630.893 141.28 626.645
C 142.027 624.969 142.525 622.536 143.873 621.251
C 144.997 621.163 146.097 621.143 147.225 621.126
C 148.753 622.314 149.234 625.073 150.004 626.785
C 152.082 631.407 154.248 636.125 155.944 640.898
C 154.915 640.712 153.225 641.208 152.375 640.561
C 151.784 639.1 151.475 637.18 150.49 635.934
C 147.313 636.069 144.031 636.177 140.851 636.072
C 139.561 637.125 139.587 639.283 138.759 640.678
C 137.768 640.93 136.678 640.721 135.68 640.613
C 135.755 639.833 135.674 640.193 135.899 639.526 Z
M 141.296 633.707
C 141.867 634.052 142.846 633.87 143.515 633.86
C 145.372 633.833 147.953 633.341 149.733 633.854
C 149.254 631.328 147.771 628.55 146.791 626.163
C 146.446 625.322 146.124 623.732 145.089 624.128
C 144.144 627.212 142.845 630.882 141.296 633.707 Z"
opacity="1" fill="rgb(15,70,109)" fill-rule="evenodd" />
<path d="
M 159.483 563.119
C 159.954 559.693 159.57 555.959 159.572 552.499
C 159.575 546.086 159.704 539.65 159.536 533.242
C 160.235 532.601 161.881 532.866 162.82 532.867
C 165.545 532.871 168.27 532.866 170.995 532.876
C 170.838 541.618 171.001 550.392 171.058 559.144
C 171.083 562.892 171.901 567.763 170.941 571.385
C 171.539 571.137 171.872 570.327 172.31 569.876
C 173.481 568.669 174.615 567.396 175.733 566.137
C 179.424 561.983 183.356 558.051 187.048 553.899
C 188.008 553.454 189.45 553.746 190.503 553.744
C 192.836 553.739 195.17 553.743 197.503 553.727
C 198.588 553.72 199.988 553.467 200.989 553.882
C 199.917 555.774 197.818 557.412 196.297 558.96
C 193.282 562.027 190.237 565.059 187.287 568.187
C 186.018 569.533 183.554 571.357 183.024 573.11
C 184.78 574.597 186.316 576.67 187.819 578.428
C 190.944 582.085 194.109 585.723 197.288 589.333
C 198.575 590.794 199.907 592.219 201.109 593.753
C 201.554 594.321 202.375 595.118 202.503 595.819
C 199.283 596.06 195.998 595.961 192.769 595.957
C 191.26 595.956 189.662 596.22 188.171 596.024
C 186.457 595.136 185.052 592.988 183.812 591.534
C 180.879 588.094 178.167 584.471 175.21 581.048
C 174.184 579.862 173.2 578.651 172.155 577.484
C 171.954 577.26 171.171 576.275 171.116 576.303
C 170.765 576.479 171.123 577.088 171.117 577.48
C 171.095 578.681 171.179 579.883 171.142 581.088
C 170.992 585.965 170.953 590.991 171.244 595.86
C 167.468 596.085 163.675 595.744 159.9 595.939
C 159.414 594.969 159.637 593.579 159.635 592.504
C 159.629 590.379 159.612 588.254 159.607 586.129
C 159.588 578.474 159.159 570.768 159.483 563.119 Z"
opacity="1" fill="rgb(11,72,104)" fill-rule="evenodd" />
<path d="
M 161.286 621.307
C 162.273 621.256 163.245 621.183 164.234 621.192
C 164.131 624.201 164.099 627.253 164.12 630.257
C 165.151 630.206 165.925 628.871 166.631 628.213
C 168.854 626.142 171.099 623.219 173.709 621.659
C 174.521 621.173 176.507 621.072 177.318 621.561
C 176.923 622.573 175.278 623.568 174.467 624.313
C 172.315 626.289 169.837 628.161 168.088 630.515
C 170.616 632.886 172.866 635.538 175.275 638.027
C 175.831 638.601 177.77 640.042 177.531 640.827
C 173.338 641.314 170.757 637.306 168.122 634.533
C 167.166 633.526 166.236 631.845 164.771 631.871
C 163.942 633.743 164.406 636.556 164.473 638.561
C 164.487 638.992 164.841 640.557 164.545 640.834
C 163.521 640.804 162.456 640.77 161.44 640.898
C 160.871 639.327 161.312 636.708 161.296 635.004
C 161.253 630.441 161.376 625.866 161.286 621.307 Z"
opacity="1" fill="rgb(16,72,112)" fill-rule="evenodd" />
<path d="
M 165.877 291.451
C 172.641 283.997 180.131 277.095 187.236 269.965
C 195.902 261.269 204.352 252.29 213.167 243.761
C 214.035 243.792 215.413 245.824 216.041 246.457
C 218.93 249.367 221.867 252.229 224.762 255.132
C 233.214 263.608 241.715 272.024 250.129 280.533
C 252.425 282.856 254.743 285.159 257.047 287.473
C 258.302 288.733 260.058 290.138 260.88 291.719
C 259.556 293.423 257.688 294.696 256.186 296.245
C 252.188 300.364 248.041 304.348 243.981 308.406
C 233.822 318.562 223.878 329.019 213.398 338.834
C 212.161 338.607 210.707 336.51 209.836 335.635
C 206.755 332.538 203.633 329.481 200.542 326.394
C 188.974 314.844 177.359 303.248 165.497 292.017
C 165.624 291.828 165.751 291.64 165.877 291.451 Z"
opacity="1" fill="rgb(8,72,103)" fill-rule="evenodd" />
<path d="
M 183.84 621.39
C 184.787 621.402 185.719 621.263 186.668 621.33
C 186.91 625.688 186.789 630.124 186.792 634.493
C 186.794 636.544 186.552 638.889 186.897 640.896
C 185.819 640.828 184.743 640.687 183.673 640.626
C 182.97 634.444 183.831 628.019 183.585 621.802
C 183.67 621.665 183.755 621.528 183.84 621.39 Z"
opacity="1" fill="rgb(21,81,118)" fill-rule="evenodd" />
<path d="
M 194.9 622.609
C 194.979 621.919 194.96 622.322 194.894 621.399
C 196.214 621.273 197.794 621.052 199.039 621.586
C 202.537 626.51 206.181 631.94 208.992 637.292
C 209.2 637.352 209.051 635.947 209.025 635.748
C 208.879 634.623 208.897 633.516 208.991 632.384
C 209.288 628.819 209.049 625.234 209.101 621.665
C 209.552 621.028 211.362 621.299 212.124 621.298
C 213.082 627.679 210.986 634.512 212.006 640.866
C 210.807 640.994 208.914 641.221 207.862 640.567
C 205.309 637.374 203.235 633.581 201.14 630.075
C 200.367 628.782 199.339 627.523 198.792 626.124
C 198.743 625.999 198.144 625.009 198.092 625.013
C 197.906 625.026 197.931 625.35 197.85 625.519
C 198.115 630.531 197.18 635.889 197.903 640.842
C 196.942 640.81 195.987 640.797 195.028 640.718
C 194.384 634.944 194.502 628.407 194.9 622.609 Z"
opacity="1" fill="rgb(16,76,118)" fill-rule="evenodd" />
<path d="
M 203.441 570.091
C 204.571 565.672 205.969 561.342 209.435 558.124
C 217.144 550.966 232.879 550.243 240.121 558.483
C 243.2 561.986 244.235 566.716 244.255 571.268
C 244.262 572.927 244.281 574.585 244.304 576.243
C 244.311 576.769 244.077 577.65 244.272 578.141
C 234.509 577.478 224.421 577.849 214.633 578.2
C 214.939 579.623 215.102 580.949 215.905 582.199
C 221.924 591.567 234.934 587.499 243.134 584.084
C 243.009 587.476 243.241 590.936 243.259 594.336
C 241.027 595.342 238.367 595.861 235.972 596.331
C 227.865 597.925 217.568 598.082 210.683 592.755
C 206.535 589.546 204.167 584.755 203.315 579.65
C 202.801 576.568 202.912 573.159 203.441 570.091 Z
M 214.92 568.564
C 214.772 569.262 214.657 569.969 214.542 570.673
C 220.953 570.375 227.392 570.643 233.805 570.62
C 233.941 569.792 233.591 568.82 233.415 568.015
C 232.231 562.598 227.455 560.182 222.17 561.369
C 218.313 562.235 216.226 565.08 214.92 568.564 Z"
opacity="1" fill="rgb(11,72,104)" fill-rule="evenodd" />
<path d="
M 219.38 628.068
C 221.395 619.867 229.711 620.837 236.19 621.597
C 236.571 622.26 236.5 623.054 236.398 623.795
C 232.305 624.66 227.458 621.432 224.062 625.382
C 221.218 628.692 221.584 635.322 225.31 637.877
C 227.393 639.304 231.176 639.191 233.462 638.276
C 233.786 636.813 234.101 634.158 233.578 632.741
C 232.032 632.835 230.148 633.123 228.644 632.7
C 228.486 631.993 228.574 631.292 228.595 630.569
C 230.58 630.193 232.634 630.547 234.637 630.603
C 235.156 630.618 236.445 630.266 236.823 630.532
C 236.768 632.742 236.606 634.954 236.591 637.167
C 236.586 637.907 236.899 639.427 236.344 639.991
C 231.233 641.413 222.41 642.902 219.957 636.451
C 219.483 635.205 219.228 633.805 219.117 632.48
C 218.992 630.993 219.05 629.525 219.38 628.068 Z"
opacity="1" fill="rgb(15,77,115)" fill-rule="evenodd" />
<path d="
M 231.83 142.738
C 233.731 142.412 236.159 143.426 238.028 143.875
C 242.681 144.993 247.318 146.2 251.945 147.413
C 263.503 150.445 275.023 153.654 286.605 156.582
C 290.999 157.693 295.387 158.85 299.737 160.122
C 301.731 160.705 304.177 160.908 305.997 161.907
C 304.849 169.122 304.769 176.625 304.727 183.916
C 304.655 196.514 305.426 209.292 307.41 221.743
C 308.353 227.655 309.475 233.52 310.822 239.354
C 311.264 241.268 311.678 243.247 312.279 245.118
C 312.496 245.793 312.966 246.606 312.949 247.322
C 295.386 238.151 277.395 230.92 258.396 225.304
C 252.729 223.628 246.889 222.262 241.096 221.103
C 238.243 220.533 234.407 220.411 231.768 219.248
C 231.493 212.197 231.803 205.062 231.805 198.001
C 231.809 179.585 232.078 161.152 231.83 142.738 Z"
opacity="1" fill="rgb(8,72,104)" fill-rule="evenodd" />
<path d="
M 231.87 362.863
C 232.94 361.517 237.081 361.309 238.736 360.891
C 244.579 359.419 250.435 358.002 256.216 356.302
C 268.228 352.771 280.201 348.869 291.652 343.769
C 299.461 340.29 306.812 335.664 314.692 332.427
C 314.895 332.581 314.201 333.974 314.12 334.168
C 313.45 335.78 312.942 337.492 312.399 339.154
C 309.998 346.499 308.687 354.173 307.398 361.771
C 305.35 373.839 304.652 386.462 304.925 398.688
C 305.073 405.302 305.803 411.891 306.078 418.492
C 303.728 419.85 300.236 420.005 297.625 420.737
C 292.083 422.29 286.529 423.827 280.963 425.296
C 264.592 429.617 248.339 434.568 231.881 438.536
C 231.244 429.622 231.838 420.439 231.839 411.499
C 231.841 395.29 231.716 379.07 231.87 362.863 Z"
opacity="1" fill="rgb(8,72,104)" fill-rule="evenodd" />
<path d="
M 232.393 337.745
C 233.721 336.855 234.724 335.476 235.852 334.349
C 238.505 331.7 241.145 329.037 243.818 326.407
C 251.43 318.917 259.183 311.572 266.814 304.103
C 269.742 301.236 272.683 298.384 275.608 295.514
C 276.517 294.622 278.573 293.236 278.946 292.051
C 276.406 288.681 273.073 285.767 270.088 282.799
C 264.446 277.191 258.752 271.64 253.078 266.064
C 248.42 261.486 243.846 256.822 239.11 252.323
C 237.127 250.439 235.265 247.969 233.078 246.375
C 233.401 245.638 234.331 245.771 235.088 245.674
C 236.772 245.458 238.458 245.361 240.157 245.316
C 247.665 245.113 255.103 245.671 262.565 246.41
C 288.482 248.98 312.629 259.242 332.663 275.786
C 337.218 279.547 341.56 283.601 345.91 287.602
C 347.001 288.605 348.06 289.642 349.142 290.655
C 349.394 290.891 349.99 291.231 349.987 291.615
C 345.032 297.472 338.432 302.639 332.468 307.433
C 317.259 319.658 300.336 329.093 281.34 333.989
C 265.268 338.132 248.749 338.381 232.299 338.03
C 232.33 337.935 232.361 337.84 232.393 337.745 Z"
opacity="1" fill="rgb(105,183,240)" fill-rule="evenodd" />
<path d="
M 251.439 539.107
C 251.885 530.433 265.55 530.874 265.249 539.386
C 264.935 548.283 250.978 548.078 251.439 539.107 Z"
opacity="1" fill="rgb(13,75,105)" fill-rule="evenodd" />
<path d="
M 252.832 553.746
C 256.311 553.211 260.65 553.275 264.148 553.696
C 263.684 562.399 264.216 571.281 264.225 580.003
C 264.23 585.09 263.487 590.829 264.255 595.844
C 260.49 596.092 256.696 595.71 252.926 595.934
C 252.567 594.596 252.832 592.889 252.823 591.5
C 252.805 588.501 252.81 585.501 252.802 582.501
C 252.777 572.916 252.769 563.33 252.832 553.746 Z"
opacity="1" fill="rgb(13,72,103)" fill-rule="evenodd" />
<path d="
M 253.663 621.31
C 254.69 621.322 255.704 621.254 256.732 621.276
C 257.651 622.231 257.88 624.515 258.251 625.785
C 259.345 629.533 259.944 633.763 261.437 637.352
C 262.36 636.79 262.47 633.87 262.699 632.848
C 263.54 629.092 264.321 624.797 265.805 621.25
C 266.901 621.269 267.909 621.202 268.957 621.583
C 269.624 625.45 270.644 629.297 271.729 633.063
C 272.015 634.057 272.104 636.37 272.979 636.972
C 273.867 635.909 274.125 633.375 274.502 631.998
C 275.466 628.475 276.518 624.934 277.722 621.489
C 278.808 621.206 279.887 621.165 280.988 621.412
C 279.912 623.21 279.378 626.007 278.779 628.045
C 277.534 632.28 276.259 636.504 275.185 640.783
C 273.987 640.902 272.769 640.814 271.567 640.869
C 270.857 640.21 270.795 638.685 270.456 637.774
C 269.443 635.042 268.863 632.186 268.034 629.403
C 267.687 628.241 267.91 627.148 267.211 626.102
C 266.349 627.547 266.198 629.548 265.742 631.17
C 264.854 634.333 263.717 637.511 263.167 640.756
C 262.191 641.173 260.631 640.768 259.566 640.858
C 257.932 638.081 257.476 633.745 256.571 630.639
C 255.706 627.667 253.917 624.375 253.663 621.31 Z"
opacity="1" fill="rgb(21,72,112)" fill-rule="evenodd" />
<path d="
M 271.413 553.869
C 273.152 552.989 276.345 553.515 278.294 553.399
C 278.271 550.62 277.706 547.13 278.314 544.435
C 281.975 543.377 285.497 542.012 289.22 541.159
C 288.806 545.114 289.146 549.514 289.379 553.498
C 293.298 553.303 297.28 553.423 301.202 553.569
C 301.621 554.41 301.405 555.571 301.372 556.499
C 301.297 558.579 300.925 561.224 301.289 563.257
C 297.326 563.124 293.299 563.062 289.34 563.277
C 289.349 568.383 289.24 573.493 289.29 578.603
C 289.32 581.71 289.379 584.818 292.201 586.757
C 293.67 587.767 295.808 587.952 297.527 587.723
C 298.433 587.603 300.195 586.829 300.915 587.371
C 300.96 589.948 301.592 592.654 301.081 595.216
C 299.109 596.846 295.507 596.792 293.09 596.925
C 291.266 597.026 289.511 596.849 287.715 596.54
C 280.655 595.327 278.261 589.451 278.149 582.994
C 278.037 576.481 278.411 569.85 277.934 563.358
C 275.796 562.992 273.35 563.689 271.284 563.164
C 271.284 560.062 271.293 556.969 271.413 553.869 Z"
opacity="1" fill="rgb(12,71,105)" fill-rule="evenodd" />
<path d="
M 287.208 621.251
C 290.046 621.302 292.903 621.21 295.746 621.225
C 296.719 621.23 298.543 620.881 299.374 621.389
C 299.369 621.985 299.59 623.116 299.344 623.66
C 296.611 623.704 292.755 622.588 290.176 623.636
C 289.939 625.487 289.836 627.553 290.09 629.411
C 292.76 629.323 295.451 629.576 298.118 629.282
C 298.466 630.022 298.242 631.082 298.299 631.895
C 295.634 631.621 292.873 631.602 290.199 631.712
C 290.016 634.045 289.976 636.335 290.163 638.673
C 293.305 638.993 296.586 638.681 299.738 638.572
C 299.734 639.019 299.989 640.782 299.494 640.885
C 295.422 640.938 291.211 641.133 287.156 640.774
C 286.732 638.623 287.068 636.185 287.054 633.993
C 287.026 629.821 286.682 625.389 287.208 621.251 Z"
opacity="1" fill="rgb(16,73,112)" fill-rule="evenodd" />
<path d="
M 304.906 595.563
C 306.172 590.854 308.258 586.276 310.011 581.733
C 313.689 572.202 317.36 562.648 320.849 553.048
C 322.444 548.658 324.196 544.306 325.698 539.883
C 326.396 537.828 326.992 534.87 328.372 533.2
C 332.736 533.227 337.299 533.447 341.65 533.074
C 343.18 539.035 346.144 544.887 348.325 550.646
C 354.04 565.732 360.194 580.719 365.473 595.956
C 361.085 595.873 356.467 595.496 352.096 595.866
C 349.765 591.595 348.863 586.445 346.869 581.999
C 345.662 581.105 342.037 581.756 340.499 581.749
C 334.515 581.718 328.399 581.402 322.432 581.842
C 321.191 585.034 320.115 588.307 319.016 591.556
C 318.532 592.99 318.259 595.033 317.353 596.241
C 313.161 596.595 308.904 595.882 304.697 596.249
C 304.766 596.02 304.836 595.791 304.906 595.563 Z
M 326.49 571.125
C 326.416 571.334 326.343 571.543 326.27 571.752
C 331.957 571.171 337.723 572.047 343.394 571.653
C 343.638 570.388 341.956 567.605 341.542 566.374
C 340.037 561.901 338.435 557.463 336.905 553
C 336.498 551.814 335.872 547.837 334.692 547.379
C 334.079 550.822 332.344 554.161 331.165 557.464
C 329.56 561.963 328.333 566.73 326.49 571.125 Z"
opacity="1" fill="rgb(10,71,104)" fill-rule="evenodd" />
<path d="
M 306.998 639.627
C 307.435 633.525 306.951 627.355 307.155 621.244
C 311.942 621.116 320.807 619.366 321.294 626.197
C 321.347 626.934 321.337 627.66 321.146 628.377
C 320.824 629.59 319.769 630.079 319.145 631.032
C 322.139 633.042 323.25 637.686 319.658 640.038
C 317.197 641.649 312.78 640.947 310.003 640.809
C 309.106 640.764 307.788 641.03 307.014 640.634
C 306.984 639.986 306.99 640.322 306.998 639.627 Z
M 310.011 624.61
C 309.795 626.285 309.839 628.115 310.083 629.783
C 312.334 629.776 314.592 630.051 316.838 629.651
C 319.087 628.694 319.187 625.21 317.333 623.814
C 315.978 622.794 311.696 623.132 310.13 623.617
C 310.03 624.356 310.067 624.024 310.011 624.61 Z
M 310.033 638.133
C 310.042 638.32 310.051 638.506 310.061 638.693
C 311.483 638.876 312.914 638.871 314.346 638.834
C 315.279 638.81 316.337 638.879 317.162 638.364
C 319.321 637.016 319.593 633.741 317.38 632.289
C 316.258 631.552 314.417 631.954 313.127 631.91
C 312.15 631.876 310.872 631.619 310.156 632.354
C 310.047 634.244 310.313 636.277 310.033 638.133 Z"
opacity="1" fill="rgb(14,74,110)" fill-rule="evenodd" />
<path d="
M 402.666 252.548
C 402.682 249.342 400.366 245.103 398.729 242.433
C 392.371 232.065 379.744 225.254 367.489 227.049
C 358.392 228.382 349.613 233.948 344.835 241.854
C 342.685 245.411 341.461 249.013 340.329 252.961
C 340.462 252.016 339.607 251.312 339.192 250.499
C 338.221 248.596 337.188 246.734 336.269 244.803
C 333.056 238.053 330.564 231.09 328.453 223.929
C 322.879 205.023 322.782 185.888 322.36 166.396
C 323.449 166.167 324.775 168.239 325.52 168.989
C 328.538 172.025 331.485 175.131 334.542 178.128
C 343.032 186.448 351.362 194.926 359.845 203.252
C 363.678 207.015 367.345 211.411 371.579 214.714
C 383.71 203.492 394.913 191.181 406.637 179.534
C 409.795 176.397 412.94 173.245 416.068 170.078
C 417.438 168.691 418.767 166.959 420.311 165.786
C 420.599 167.255 420.293 169.049 420.33 170.576
C 420.428 174.552 420.484 178.521 420.406 182.498
C 420.074 199.56 417.329 216.539 411.551 232.63
C 410.248 236.259 408.798 239.845 407.086 243.301
C 405.594 246.309 403.662 249.332 402.666 252.548 Z"
opacity="1" fill="rgb(104,182,240)" fill-rule="evenodd" />
<path d="
M 322.493 419.621
C 322.947 415.659 322.663 411.495 322.81 407.504
C 323.022 401.74 323.598 395.981 324.43 390.274
C 328.363 363.296 338.803 337.008 355.845 315.543
C 359.149 311.381 362.462 307.276 365.893 303.219
C 367.545 301.267 369.302 299.069 371.354 297.536
C 378.456 303.755 384.548 312.01 389.963 319.701
C 405.915 342.357 416.602 367.97 419.335 395.712
C 420.15 403.988 420.3 412.215 420.273 420.532
C 420.266 422.679 420.304 424.847 420.217 426.991
C 420.197 427.461 420.467 428.616 420.062 428.939
C 415.977 425.255 412.283 421.11 408.393 417.212
C 400.254 409.055 392.115 400.881 383.884 392.816
C 380.89 389.883 377.944 386.918 375.026 383.908
C 374.02 382.869 372.601 380.745 371.089 380.621
C 368.269 383.858 364.879 386.674 361.885 389.766
C 352.923 399.021 343.628 408.001 334.427 417.015
C 331.483 419.9 328.791 423.054 325.741 425.827
C 325.105 426.405 323.508 428.364 322.68 428.195
C 322.607 425.34 322.369 422.481 322.493 419.621 Z"
opacity="1" fill="rgb(6,88,150)" fill-rule="evenodd" />
<path d="
M 322.821 149.101
C 331.825 141.173 339.943 132.002 348.415 123.504
C 355.945 115.952 364.016 108.676 371.142 100.757
C 372.315 100.953 373.889 103.306 374.752 104.177
C 377.893 107.341 380.991 110.548 384.14 113.704
C 396.109 125.697 408.207 137.559 420.205 149.519
C 419.548 150.834 417.612 152.029 416.496 152.977
C 413.945 155.146 411.609 157.661 409.24 160.026
C 400.564 168.687 392.066 177.524 383.401 186.196
C 380.536 189.063 377.681 191.94 374.826 194.817
C 374.119 195.529 372.723 197.623 371.755 197.808
C 367.063 194.286 363.077 189.393 358.886 185.292
C 350.433 177.019 342.057 168.667 333.68 160.316
C 330.182 156.828 326.779 152.347 322.786 149.458
C 322.798 149.339 322.809 149.22 322.821 149.101 Z"
opacity="1" fill="rgb(247,114,63)" fill-rule="evenodd" />
<path d="
M 322.921 447.05
C 322.944 446.897 322.966 446.744 322.989 446.59
C 329.769 440.977 335.513 433.91 341.73 427.692
C 351.541 417.88 361.608 408.278 371.123 398.183
C 372.216 398.333 373.663 400.437 374.474 401.228
C 377.433 404.112 380.31 407.089 383.234 410.009
C 391.713 418.476 400.222 426.916 408.608 435.476
C 411.021 437.939 413.457 440.381 415.888 442.827
C 417.017 443.964 418.666 445.196 419.436 446.597
C 418.314 448.178 416.713 449.462 415.34 450.821
C 412.371 453.761 409.386 456.672 406.349 459.54
C 398.575 466.881 391.03 474.514 383.423 482.03
C 380.454 484.963 377.519 487.928 374.545 490.856
C 373.708 491.681 372.185 493.826 371.034 493.994
C 366.58 490.263 362.537 485.642 358.419 481.519
C 351.041 474.132 343.516 466.892 336.017 459.628
C 331.683 455.429 327.527 450.949 322.921 447.05 Z"
opacity="1" fill="rgb(8,72,103)" fill-rule="evenodd" />
<path d="
M 328.892 621.297
C 332.304 621.012 337.44 620.3 340.634 621.753
C 344.564 623.541 344.656 629.96 341.356 632.418
C 338.478 634.56 334.744 632.542 331.828 633.827
C 331.759 636.043 331.396 638.48 331.668 640.68
C 330.742 640.736 329.817 640.781 328.895 640.876
C 328.348 639.112 328.754 636.625 328.76 634.779
C 328.772 630.286 328.89 625.786 328.892 621.297 Z
M 331.934 624.071
C 331.862 625.876 331.84 627.685 331.867 629.492
C 331.876 630.09 331.679 630.866 332.005 631.371
C 334.004 631.403 337.173 631.828 338.89 630.579
C 340.91 629.11 341.098 624.919 338.694 623.709
C 336.97 622.841 334.091 623.408 332.21 623.496
C 332.118 623.688 332.026 623.879 331.934 624.071 Z"
opacity="1" fill="rgb(13,74,109)" fill-rule="evenodd" />
<path d="
M 340.329 252.961
C 341.461 249.013 342.685 245.411 344.835 241.854
C 349.613 233.948 358.392 228.382 367.489 227.049
C 379.744 225.254 392.371 232.065 398.729 242.433
C 400.366 245.103 402.682 249.342 402.666 252.548
C 403.166 259.975 403.034 266.935 399.322 273.636
C 393.75 283.692 383.231 291.41 371.462 291.466
C 352.339 291.556 335.956 271.616 340.329 252.961 Z"
opacity="1" fill="rgb(246,114,63)" fill-rule="evenodd" />
<path d="
M 346.325 640.706
C 349.471 634.6 351.478 627.703 354.193 621.379
C 355.359 621.29 356.786 621.133 357.908 621.487
C 359.816 628.136 364.272 634.186 366.022 640.896
C 364.941 640.817 363.833 640.892 362.781 640.597
C 362.118 639.195 361.663 637.695 361.091 636.253
C 358.77 636.396 356.398 636.315 354.073 636.258
C 353.138 636.235 351.771 635.982 351.044 636.59
C 350.586 637.918 350.372 639.916 349.527 641.031
C 348.482 641.17 347.428 641.035 346.383 640.979
C 346.364 640.888 346.344 640.797 346.325 640.706 Z
M 352.367 633.029
C 352.203 633.619 352.264 633.306 352.197 633.969
C 354.081 634.862 357.831 634.329 359.931 634.224
C 360.066 633.608 359.369 632.352 359.154 631.724
C 358.537 629.925 357.854 628.13 357.128 626.375
C 356.721 625.391 356.98 624.576 355.904 624.077
C 354.794 627.069 353.604 630.086 352.367 633.029 Z"
opacity="1" fill="rgb(16,74,112)" fill-rule="evenodd" />
<path d="
M 367.432 573.11
C 368.085 568.054 369.323 563.162 372.891 559.303
C 379.9 551.723 394.455 550.456 403.403 555.121
C 403.795 555.618 403.581 556.973 403.569 557.595
C 403.533 559.4 403.585 561.202 403.474 563
C 403.443 563.496 403.773 564.432 403.478 564.854
C 401.212 564.42 399.011 563.32 396.765 562.739
C 392.982 561.759 388.492 562.022 384.928 563.636
C 376.976 567.238 376.835 581.443 384.049 585.877
C 388.215 588.438 394.121 588.225 398.631 586.709
C 400.42 586.107 402.197 584.77 403.961 584.306
C 404.207 585.011 403.941 585.785 403.98 586.519
C 404.116 589.098 404.362 591.681 404.212 594.268
C 401.966 595.659 399.012 596.314 396.441 596.753
C 388.594 598.092 378.548 597.527 372.801 591.239
C 368.571 586.61 366.997 579.198 367.432 573.11 Z"
opacity="1" fill="rgb(12,72,104)" fill-rule="evenodd" />
<path d="
M 370.457 630.107
C 370.719 628.233 371.02 626.338 372.138 624.762
C 375.168 620.49 382.704 619.832 387.252 621.839
C 387.664 622.56 387.826 623.367 387.817 624.198
C 383.667 624.33 379.47 621.719 375.785 625.108
C 372.619 628.019 372.557 634.628 375.835 637.49
C 377.929 639.318 382.236 639.527 384.745 638.388
C 384.946 637.056 385.372 633.884 384.819 632.678
C 383.215 632.864 381.568 632.817 379.954 632.92
C 379.614 632.211 379.734 631.535 379.795 630.767
C 381.537 630.021 383.759 630.385 385.615 630.353
C 386.273 630.342 387.306 630.096 387.855 630.44
C 387.675 633.666 388.122 637.113 387.581 640.294
C 386.502 640.927 384.481 640.874 383.235 641.058
C 378.575 641.747 372.383 640.877 370.755 635.619
C 370.229 633.921 370.285 631.856 370.457 630.107 Z"
opacity="1" fill="rgb(14,73,113)" fill-rule="evenodd" />
<path d="
M 392.772 291.461
C 403.55 281.908 413.96 271.574 426.439 264.186
C 444.47 253.51 465.086 247.386 485.958 245.86
C 494.157 245.261 502.213 245.593 510.402 246.022
C 509.594 247.313 507.775 248.445 506.633 249.503
C 504.059 251.886 501.511 254.324 499.071 256.843
C 487.503 268.786 474.945 279.836 463.705 292.081
C 464.743 293.912 467.313 295.64 468.845 297.123
C 472.26 300.428 475.614 303.796 479.025 307.105
C 486.59 314.444 494.112 321.825 501.724 329.109
C 504.735 331.99 507.562 335.181 510.756 337.855
C 510.939 337.993 509.235 337.872 509 337.871
C 507.951 337.869 506.878 338.063 505.816 338.086
C 502.628 338.156 499.442 338.253 496.253 338.253
C 486.645 338.255 476.741 337.444 467.346 335.39
C 454.737 332.633 442.449 328.264 431.162 321.956
C 421.156 316.365 412.227 309.073 403.705 301.472
C 400.076 298.235 395.99 295.107 392.772 291.461 Z"
opacity="1" fill="rgb(104,183,241)" fill-rule="evenodd" />
<path d="
M 395.46 622.596
C 395.57 621.989 395.541 622.343 395.464 621.53
C 399.098 620.486 404.275 621.149 408.048 621.33
C 408.254 621.962 408.118 622.647 408.08 623.298
C 407.184 623.697 405.79 623.467 404.807 623.452
C 402.744 623.422 400.744 623.386 398.698 623.684
C 398.491 625.617 398.389 627.524 398.514 629.47
C 399.173 629.854 400.414 629.625 401.165 629.621
C 403.035 629.61 404.909 629.691 406.778 629.612
C 406.818 630.251 407.05 631.341 406.537 631.802
C 404.348 632.138 400.352 630.899 398.517 632.145
C 398.415 634.271 398.059 636.807 398.533 638.894
C 401.741 638.709 404.979 638.794 408.196 638.729
C 408.464 639.346 408.369 640.142 408.324 640.808
C 404.441 641.78 399.922 640.914 395.952 640.928
C 394.921 640.047 395.432 637.272 395.426 635.999
C 395.406 631.575 395.083 627.004 395.46 622.596 Z"
opacity="1" fill="rgb(14,71,111)" fill-rule="evenodd" />
<path d="
M 408.45 571.598
C 408.924 568.544 409.61 565.7 411.15 562.979
C 415.656 555.023 424.947 552.335 433.59 552.751
C 436.891 552.91 441.555 553.321 444.315 555.295
C 444.099 558.635 444.477 561.998 444.333 565.332
C 442.864 565.004 441.281 563.952 439.796 563.463
C 435.769 562.136 431.09 561.523 427.023 563.055
C 418.272 566.351 417.828 580.705 425.107 585.76
C 431.377 590.113 438.314 586.981 444.694 585.009
C 444.718 588.122 444.78 591.24 444.77 594.354
C 444.174 594.996 442.574 595.33 441.747 595.603
C 439.021 596.503 436.064 597.093 433.204 597.33
C 429.873 597.607 426.44 597.524 423.199 596.645
C 411.891 593.577 407.224 582.577 408.45 571.598 Z"
opacity="1" fill="rgb(12,70,103)" fill-rule="evenodd" />
<path d="
M 414.42 624.565
C 416.281 620.304 423.459 620.32 427.201 621.822
C 427.574 622.329 428.128 623.785 427.581 624.322
C 424.995 623.995 422.717 622.972 420.029 623.41
C 418.094 623.724 416.883 625.125 417.313 627.083
C 419.307 630.558 425.24 629.556 427.763 632.795
C 429.766 635.366 428.177 639.241 425.451 640.467
C 422.031 642.005 417.882 641.122 414.334 640.595
C 414.13 639.564 414.214 638.631 414.322 637.595
C 415.84 637.99 417.164 638.784 418.754 638.937
C 420.44 639.101 422.827 639.204 424.295 638.195
C 425.532 637.345 425.896 635.583 424.876 634.419
C 422.048 631.196 414.362 632.013 414.205 626.517
C 414.186 625.856 414.265 625.206 414.42 624.565 Z"
opacity="1" fill="rgb(15,77,115)" fill-rule="evenodd" />
<path d="
M 428.296 332.825
C 432.237 333.97 436.052 336.668 439.723 338.528
C 445.859 341.637 452.245 344.314 458.642 346.839
C 475.634 353.547 492.992 357.806 510.64 362.292
C 511.34 363.241 510.751 366.274 510.75 367.504
C 510.745 372.338 510.735 377.172 510.733 382.006
C 510.73 394.339 510.718 406.672 510.721 419.005
C 510.723 425.419 511.148 432.004 510.684 438.399
C 508.566 438.351 506.004 437.171 503.927 436.643
C 498.02 435.141 492.131 433.59 486.25 431.989
C 469.789 427.507 453.36 422.888 436.881 418.481
C 436.443 417.745 436.685 416.884 436.749 416.049
C 436.887 414.211 436.967 412.356 437.071 410.516
C 437.43 404.165 437.623 397.757 437.551 391.395
C 437.409 378.834 436.108 366.294 433.754 353.955
C 432.428 347.008 430.749 339.839 428.118 333.262
C 428.177 333.116 428.237 332.971 428.296 332.825 Z"
opacity="1" fill="rgb(8,72,104)" fill-rule="evenodd" />
<path d="
M 429.532 246.603
C 431.393 241.297 432.366 235.597 433.522 230.104
C 436.516 215.869 437.729 200.893 437.686 186.361
C 437.669 180.573 437.458 174.789 437.2 169.007
C 437.096 166.667 436.546 164.204 436.705 161.877
C 454.895 156.67 473.247 152.031 491.537 147.183
C 497.848 145.51 504.522 144.364 510.684 142.248
C 511.273 143.249 510.739 145.544 510.738 146.691
C 510.735 150.628 510.738 154.566 510.743 158.503
C 510.761 173.003 510.762 187.503 510.744 202.003
C 510.739 206.337 510.739 210.671 510.728 215.005
C 510.725 216.035 511.242 218.76 510.512 219.524
C 492.036 223.102 474.084 227.791 456.534 234.701
C 449.842 237.335 443.378 240.499 436.899 243.611
C 434.386 244.818 431.972 246.327 429.38 247.351
C 429.259 247.009 429.315 247.257 429.532 246.603 Z"
opacity="1" fill="rgb(8,71,103)" fill-rule="evenodd" />
<path d="
M 443.842 640.023
C 445.815 635.486 447.435 630.758 449.324 626.177
C 449.987 624.571 450.393 622.777 451.394 621.335
C 452.589 621.29 453.917 621.064 455.08 621.382
C 456.546 623.86 457.315 626.799 458.433 629.441
C 459.974 633.083 462.348 637.037 463.047 640.946
C 462.059 640.919 461.099 640.97 460.112 640.858
C 459.108 639.881 458.812 638.05 458.327 636.766
C 457.512 636.266 456.36 636.372 455.425 636.36
C 453.099 636.33 450.755 636.203 448.442 636.387
C 447.802 637.85 447.384 639.428 446.892 640.946
C 445.876 641.054 444.566 641.069 443.661 640.583
C 443.721 640.396 443.782 640.21 443.842 640.023 Z
M 449.916 632.039
C 449.706 632.674 449.243 633.63 449.948 634.152
C 450.333 634.438 451.593 634.25 452.042 634.243
C 453.769 634.215 455.581 634.172 457.296 634.323
C 457.325 633.666 456.783 632.972 456.568 632.354
C 455.848 630.286 455.043 628.23 454.356 626.151
C 454.064 625.269 453.919 624.061 452.92 624.3
C 451.981 626.856 451.088 629.585 449.916 632.039 Z"
opacity="1" fill="rgb(15,73,110)" fill-rule="evenodd" />
<path d="
M 448.942 571.098
C 449.808 566.658 451.24 562.42 454.46 559.09
C 461.976 551.318 477.132 550.03 485.119 557.753
C 488.72 561.235 490.168 565.869 490.306 570.771
C 490.37 573.035 489.934 575.76 490.383 577.951
C 487.538 578.634 483.592 577.95 480.636 577.958
C 473.939 577.977 467.234 578.057 460.541 578.181
C 460.728 579.413 460.866 580.675 461.404 581.814
C 465.312 590.091 477.576 588.684 484.623 586.18
C 486.172 585.63 487.676 584.939 489.154 584.226
C 489.225 587.362 489.391 590.62 489.203 593.753
C 486.394 595.48 482.752 596.244 479.539 596.803
C 470.166 598.434 459.389 597.326 453.103 589.386
C 449.127 584.364 448.164 577.295 448.942 571.098 Z
M 460.894 568.559
C 460.718 569.283 460.597 570.007 460.531 570.748
C 465.016 570.551 469.513 570.52 474.006 570.529
C 475.641 570.532 478.156 570.072 479.666 570.628
C 480.49 562.544 471.66 559.05 465.297 562.407
C 462.8 563.725 461.847 566.073 460.894 568.559 Z"
opacity="1" fill="rgb(11,71,104)" fill-rule="evenodd" />
<path d="
M 467.46 629.608
C 468.388 623.195 472.908 620.5 479.188 620.946
C 480.752 621.056 482.537 621.084 483.859 622.006
C 483.953 622.896 483.892 623.697 483.448 624.481
C 482.543 624.3 481.806 623.688 480.888 623.48
C 478.841 623.015 476.359 623.042 474.391 623.8
C 469.781 625.572 469.232 633.718 472.324 637.018
C 475.321 640.216 480.343 639.196 483.676 637.21
C 483.82 638.232 483.951 639.325 483.838 640.352
C 479.799 641.938 472.995 642.065 469.83 638.706
C 467.631 636.372 467.153 632.685 467.46 629.608 Z"
opacity="1" fill="rgb(16,73,108)" fill-rule="evenodd" />
<path d="
M 481.775 291.473
C 497.428 275.425 513.814 260.048 529.077 243.627
C 530.182 243.939 531.254 245.611 532.07 246.427
C 534.521 248.878 536.949 251.352 539.411 253.791
C 548.472 262.764 557.598 271.71 566.387 280.948
C 568.982 283.675 571.643 286.339 574.297 289.008
C 574.865 289.579 577.135 291.193 576.878 291.913
C 575.091 294.5 572.126 296.666 569.902 298.892
C 565.223 303.575 560.549 308.264 555.837 312.914
C 549.75 318.922 543.616 324.894 537.579 330.951
C 535.062 333.475 532.485 336.808 529.541 338.805
C 527.92 337.835 526.517 335.934 525.173 334.608
C 522.264 331.738 519.341 328.883 516.44 326.004
C 507.917 317.544 499.433 309.038 490.725 300.77
C 487.742 297.937 484.881 294.505 481.647 292.005
C 481.69 291.828 481.732 291.65 481.775 291.473 Z"
opacity="1" fill="rgb(9,72,103)" fill-rule="evenodd" />
<path d="
M 489.461 628.599
C 489.792 627.189 490.116 625.841 490.968 624.64
C 494.146 620.163 500.89 620.299 505.573 621.875
C 506.094 622.656 505.914 624.143 505.923 625.058
C 502.669 623.427 497.498 621.922 494.492 624.992
C 489.757 629.829 493.008 639.392 500.039 638.941
C 501.999 638.815 503.827 638.42 505.649 637.68
C 505.953 638.254 506.112 639.638 505.82 640.236
C 500.301 642.392 491.872 641.798 489.8 635.244
C 489.144 633.169 489.109 630.735 489.461 628.599 Z"
opacity="1" fill="rgb(13,69,106)" fill-rule="evenodd" />
<path d="
M 496.425 563.083
C 496.945 561.427 497.496 559.851 498.548 558.438
C 503.153 552.26 513.965 552.138 520.729 553.399
C 523.16 553.852 525.811 554.273 527.971 555.531
C 528.22 558.647 527.775 561.835 527.868 564.964
C 523.15 562.491 516.992 561.127 511.673 561.813
C 509.285 562.122 505.319 564.266 507.382 567.229
C 508.914 569.43 512.538 569.831 514.953 570.404
C 520.69 571.765 528.246 573.757 529.437 580.454
C 529.749 582.208 529.792 584.033 529.628 585.806
C 528.606 596.87 514.749 598.171 506.058 596.823
C 503.087 596.362 498.808 595.992 496.446 593.942
C 495.947 591.149 496.449 588.059 496.321 585.222
C 497.448 585.204 498.526 586.007 499.569 586.38
C 501.488 587.065 503.544 587.517 505.557 587.816
C 508.895 588.314 512.856 588.845 516.055 587.499
C 518.232 586.584 519.344 583.998 517.386 582.181
C 515.617 580.539 512.927 580.215 510.682 579.626
C 504.159 577.915 496.69 576.092 496.126 568.075
C 496.01 566.434 496.082 564.693 496.425 563.083 Z"
opacity="1" fill="rgb(12,72,105)" fill-rule="evenodd" />
<path d="
M 512.467 623.614
C 512.52 622.966 512.569 622.319 512.567 621.669
C 513.3 621.001 515.024 621.292 516.002 621.296
C 518.893 621.308 522.071 620.896 524.925 621.341
C 524.954 622.066 524.929 622.789 524.951 623.516
C 524.694 623.916 523.013 623.631 522.518 623.631
C 520.525 623.628 517.281 623.057 515.461 623.871
C 515.467 625.199 515.427 626.536 515.416 627.865
C 515.412 628.324 515.253 629.326 515.652 629.587
C 517.975 629.434 521.206 629.107 523.459 629.756
C 523.604 630.449 523.65 631.099 523.608 631.808
C 521.105 631.856 517.835 631.073 515.445 631.863
C 515.434 634.084 515.324 636.328 515.523 638.543
C 516.134 638.965 517.269 638.729 518.001 638.742
C 520.359 638.784 522.745 638.623 525.097 638.772
C 525.29 639.468 525.292 640.148 525.283 640.865
C 521.378 641.071 516.475 641.546 512.649 640.732
C 512.312 635.115 512.043 629.231 512.467 623.614 Z"
opacity="1" fill="rgb(16,68,112)" fill-rule="evenodd" />
<path d="
M 531.477 625.603
C 532.605 620.232 540.214 620.297 544.397 621.634
C 544.591 622.524 544.626 623.344 544.657 624.246
C 542.213 623.535 538.984 622.894 536.478 623.674
C 534.845 624.183 533.654 626.327 534.9 627.803
C 537.476 630.855 544.262 629.68 545.278 634.458
C 546.52 640.296 540.292 641.418 536.011 641.208
C 534.568 641.137 532.481 641.1 531.375 640.08
C 531.212 639.265 531.312 638.564 531.366 637.74
C 532.985 637.682 534.583 638.879 536.282 638.956
C 537.773 639.024 539.615 639.091 540.966 638.356
C 542.278 637.642 542.882 635.623 541.851 634.442
C 538.619 630.738 530.812 632.22 531.477 625.603 Z"
opacity="1" fill="rgb(17,75,113)" fill-rule="evenodd" />
<path d="
M 534.957 564.095
C 535.36 562.353 535.707 560.853 536.704 559.323
C 541.012 552.711 550.915 552.37 557.899 553.139
C 560.323 553.405 564.689 553.592 566.613 555.201
C 566.666 558.381 566.747 561.581 566.691 564.763
C 566.008 564.77 564.866 564.031 564.188 563.811
C 562.16 563.153 560.171 562.516 558.068 562.141
C 554.99 561.591 551.151 561.056 548.23 562.476
C 546.023 563.549 545.401 566.3 547.353 567.965
C 549.266 569.595 552.084 569.908 554.451 570.473
C 559.406 571.657 565.379 573.332 567.64 578.37
C 570.603 584.97 567.409 592.9 560.759 595.542
C 553.164 598.559 542.491 597.823 535.203 594.159
C 534.909 591.344 535.186 588.457 535.013 585.629
C 535.08 585.427 535.007 585.066 535.215 585.024
C 535.674 584.932 536.08 585.388 536.528 585.523
C 537.724 585.884 538.88 586.367 540.082 586.709
C 544.235 587.891 548.981 588.824 553.301 588.198
C 554.767 587.986 557.415 587.236 557.631 585.452
C 558.211 580.661 551.055 580.051 547.86 579.151
C 541.807 577.447 535.704 575.456 534.878 568.296
C 534.718 566.906 534.765 565.479 534.957 564.095 Z"
opacity="1" fill="rgb(10,71,104)" fill-rule="evenodd" />
<path d="
M 550.904 625.077
C 552.513 619.919 559.615 620.666 563.774 621.509
C 563.958 622.593 563.869 623.683 564.011 624.756
C 563.382 625 562.028 623.757 561.394 623.56
C 559.297 622.909 554.766 622.891 554.032 625.522
C 553.588 627.116 554.617 628.237 555.952 628.932
C 558.339 630.174 561.367 629.966 563.441 631.854
C 566.604 634.732 564.981 639.942 561.045 640.96
C 559.607 641.332 558.118 641.364 556.642 641.307
C 554.642 641.23 552.85 640.888 550.913 640.422
C 550.578 639.633 550.894 638.448 551.471 637.869
C 554.494 638.823 558.75 640.55 561.345 637.786
C 562.836 635.332 561.272 633.678 558.958 632.885
C 555.047 631.545 550.025 630.372 550.904 625.077 Z"
opacity="1" fill="rgb(15,73,113)" fill-rule="evenodd" />
<path d="
M 571.485 637.615
C 572.121 632.529 571.53 627.095 571.571 621.973
C 572.497 621.436 573.425 621.446 574.479 621.516
C 574.737 626.485 574.548 631.514 574.544 636.493
C 574.543 637.61 574.643 638.717 574.67 639.833
C 574.676 640.07 574.797 640.847 574.493 640.877
C 573.586 640.835 572.677 640.824 571.769 640.82
C 571.28 639.834 571.419 638.686 571.485 637.615 Z"
opacity="1" fill="rgb(17,64,106)" fill-rule="evenodd" />
<path d="
M 574.427 537.578
C 576.771 529.051 590.348 532.606 587.793 541.34
C 585.424 549.438 572.142 545.894 574.427 537.578 Z"
opacity="1" fill="rgb(14,73,105)" fill-rule="evenodd" />
<path d="
M 575.767 553.832
C 579.439 553.844 583.387 553.319 587.029 553.836
C 586.532 564.008 587.032 574.318 587.094 584.503
C 587.112 587.337 587.153 590.17 587.188 593.005
C 587.197 593.778 586.925 595.504 587.294 596.147
C 583.526 596.145 579.716 595.682 575.952 595.936
C 575.136 590.163 575.813 583.834 575.799 578.002
C 575.779 570.002 575.205 561.811 575.767 553.832 Z"
opacity="1" fill="rgb(11,71,102)" fill-rule="evenodd" />
<path d="
M 582.896 621.44
C 587.636 621.231 597.708 619.563 596.96 627.007
C 596.764 628.953 595.107 629.428 594.625 631.036
C 598.684 632.419 598.634 638.209 595.048 640.326
C 593.801 641.062 592.16 640.929 590.766 640.932
C 588.167 640.936 585.517 640.758 582.925 640.947
C 582.457 638.759 582.75 636.241 582.719 634.006
C 582.661 629.919 582.523 625.832 582.628 621.747
C 582.717 621.645 582.806 621.543 582.896 621.44 Z
M 585.516 624.62
C 585.484 626.297 585.471 627.999 585.552 629.668
C 586.976 629.838 588.417 629.79 589.848 629.733
C 592.43 629.632 596.125 627.023 593.222 624.36
C 591.83 623.084 587.132 623.163 585.596 624.143
C 585.569 624.302 585.543 624.461 585.516 624.62 Z
M 586.069 632.017
C 585.934 632.11 585.799 632.203 585.664 632.296
C 585.633 634.418 585.705 636.542 585.672 638.663
C 587.161 639.202 589.454 638.789 591.037 638.785
C 591.682 638.784 592.613 638.885 593.214 638.578
C 595.498 637.414 595.021 633.128 592.901 632.09
C 591.277 631.295 587.849 631.924 586.069 632.017 Z"
opacity="1" fill="rgb(15,71,112)" fill-rule="evenodd" />
<path d="
M 597.826 532.947
C 600.548 532.961 603.28 532.894 606.004 532.873
C 606.688 532.868 608.271 532.632 608.788 533.032
C 608.719 541.228 608.568 549.47 608.743 557.663
C 608.917 558.037 610.284 556.465 610.633 556.165
C 611.971 555.017 613.557 554.125 615.217 553.54
C 619.998 551.853 625.722 552.243 630.182 554.653
C 636.835 558.249 638.881 564.649 639.137 571.823
C 639.498 581.955 636.409 592.49 625.822 595.994
C 621.541 597.411 616.7 597.788 612.37 596.431
C 611.251 596.08 607.708 593.772 606.989 594.376
C 606.926 595.023 606.853 595.673 606.805 596.32
C 603.977 596.24 600.753 596.641 598.017 595.862
C 597.354 583.981 597.943 571.901 597.922 559.997
C 597.906 551.086 597.122 541.82 597.826 532.947 Z
M 608.941 567.574
C 608.221 571.624 608.9 576.386 608.905 580.51
C 608.907 581.86 608.442 584.255 609.308 585.337
C 611.499 586.843 613.858 587.446 616.503 587.447
C 626.853 587.451 630.989 573.631 625.298 565.961
C 621.33 560.613 612.005 562.099 608.941 567.574 Z"
opacity="1" fill="rgb(10,71,104)" fill-rule="evenodd" />
<path d="
M 604.747 621.279
C 605.756 621.206 606.742 621.156 607.754 621.179
C 607.65 627.027 607.901 632.882 607.813 638.727
C 608.498 639.1 609.72 638.796 610.497 638.786
C 612.542 638.758 614.588 638.774 616.634 638.75
C 616.781 639.172 617 640.706 616.541 640.905
C 612.677 640.997 608.798 640.749 604.939 640.91
C 604.173 639.762 604.744 636.896 604.746 635.504
C 604.752 630.767 604.853 626.012 604.747 621.279 Z"
opacity="1" fill="rgb(17,70,109)" fill-rule="evenodd" />
<path d="
M 622.977 630.117
C 623.523 627.239 622.626 624.16 623.228 621.297
C 627.361 621.352 631.538 621.289 635.677 621.209
C 635.975 621.835 635.97 622.629 635.832 623.297
C 633.636 623.232 631.326 623.367 629.121 623.451
C 628.131 623.488 626.846 623.489 626.037 624.037
C 625.848 625.735 625.824 627.503 626.014 629.204
C 627.52 629.873 629.942 629.389 631.571 629.333
C 632.276 629.31 633.302 629.098 633.866 629.571
C 633.894 630.222 633.886 630.868 633.931 631.518
C 633.649 631.883 632.457 631.655 632.002 631.668
C 630.033 631.726 627.876 631.377 625.956 631.867
C 625.879 634.077 625.754 636.31 625.989 638.514
C 626.913 638.866 628.032 638.652 629.002 638.662
C 631.207 638.685 633.415 638.674 635.619 638.717
C 635.681 639.172 636.025 640.719 635.523 640.928
C 632.77 640.905 630.017 640.926 627.264 640.911
C 625.949 640.904 624.273 641.134 623.033 640.681
C 622.621 637.291 622.701 633.519 622.977 630.117 Z"
opacity="1" fill="rgb(14,74,114)" fill-rule="evenodd" />
<path d="
M 646.872 533.432
C 647.752 532.703 649.376 532.911 650.493 532.921
C 653.137 532.942 655.78 532.952 658.422 532.983
C 659.175 546.396 658.448 560.061 658.399 573.508
C 658.384 577.68 656.8 585.674 661.701 587.7
C 663.158 588.303 664.973 588.185 666.521 588.198
C 666.31 590.831 666.681 593.553 666.262 596.181
C 661.226 596.93 653.772 598.152 649.797 594.09
C 645.794 590 646.854 582.062 646.864 576.838
C 646.89 562.403 646.338 547.855 646.872 533.432 Z"
opacity="1" fill="rgb(11,72,106)" fill-rule="evenodd" />
<path d="
M 668.952 570.093
C 670.042 565.752 671.468 561.583 674.8 558.39
C 682.303 551.199 697.866 550.195 705.115 558.295
C 708.32 561.876 709.595 566.603 709.694 571.317
C 709.737 573.352 709.165 576.317 709.698 578.232
C 707.02 577.602 703.275 578.226 700.498 578.228
C 693.682 578.233 686.862 578.208 680.05 578.183
C 680.299 579.453 680.48 580.701 681.116 581.849
C 686.533 591.631 700.482 588.121 708.562 584.187
C 708.771 587.163 709.086 590.805 708.625 593.752
C 705.757 595.919 700.655 596.548 697.188 597.03
C 686.67 598.489 675.155 596.186 670.454 585.63
C 669.628 583.776 669.107 581.884 668.824 579.876
C 668.374 576.676 668.444 573.281 668.952 570.093 Z
M 680.364 569.051
C 680.258 569.617 680.154 570.184 680.046 570.751
C 684.663 571.018 689.376 570.661 694.005 570.676
C 695.645 570.681 697.578 570.399 699.174 570.672
C 699.942 563.26 692.119 559.286 685.848 561.973
C 682.75 563.3 681.408 566.06 680.364 569.051 Z"
opacity="1" fill="rgb(10,71,104)" fill-rule="evenodd" />

</svg>